<mxfile host="app.diagrams.net" modified="2024-06-21T12:20:45.789Z" agent="Mozilla/5.0 (Windows NT 10.0; Win64; x64) AppleWebKit/537.36 (KHTML, like Gecko) Chrome/126.0.0.0 Safari/537.36" version="24.6.0" etag="xZsWtcW9OYZhG-267O4F" type="github">
  <diagram name="Trang-1" id="2Mpa3MiPuB_IE_3Rl7SE">
    <mxGraphModel>
      <root>
        <mxCell id="0" />
        <mxCell id="1" parent="0" />
      </root>
    </mxGraphModel>
  </diagram>
</mxfile>
